<?xml version="1.0" standalone="no"?>
<!DOCTYPE svg PUBLIC "-//W3C//DTD SVG 20010904//EN"
 "http://www.w3.org/TR/2001/REC-SVG-20010904/DTD/svg10.dtd">
<svg version="1.0" xmlns="http://www.w3.org/2000/svg"
 width="615.000000pt" height="615.000000pt" viewBox="0 0 615.000000 615.000000"
 preserveAspectRatio="xMidYMid meet">

<g transform="translate(0.000000,615.000000) scale(0.100000,-0.100000)"
fill="#000000" stroke="none">
<path d="M2762 5944 c-621 -67 -1192 -325 -1646 -743 -546 -502 -863 -1171
-911 -1923 l-7 -108 74 0 74 0 81 193 c80 187 83 192 118 204 44 16 76 9 104
-21 20 -21 81 -210 147 -455 14 -53 29 -99 33 -104 4 -4 57 236 117 535 76
376 114 549 127 564 44 57 147 36 167 -34 7 -21 51 -227 99 -458 l86 -419 177
-3 177 -2 5 32 c3 18 14 101 26 183 39 275 132 591 233 791 20 39 61 108 91
154 31 46 56 85 56 87 0 2 -25 29 -56 59 -141 141 -213 327 -217 560 l-2 99
600 3 c638 3 715 -1 888 -44 300 -74 593 -251 783 -473 150 -173 262 -372 333
-586 66 -200 73 -262 78 -677 l5 -368 177 0 176 0 94 225 c59 141 101 231 115
240 27 19 76 19 104 -1 25 -17 27 -22 118 -258 36 -94 68 -173 70 -175 2 -2
15 21 28 51 43 97 45 98 291 98 l213 0 -5 68 c-21 331 -85 628 -195 902 -162
407 -429 797 -733 1073 -468 424 -1056 679 -1700 737 -149 14 -443 11 -593 -6z"/>
<path d="M3044 3830 c-59 -30 -87 -73 -92 -142 -5 -70 9 -108 54 -148 69 -60
159 -60 228 0 45 40 59 78 54 148 -5 71 -34 117 -92 143 -53 24 -101 24 -152
-1z"/>
<path d="M3881 3832 c-19 -9 -48 -34 -65 -55 -27 -34 -31 -47 -31 -101 0 -76
32 -133 92 -161 174 -83 330 128 205 277 -48 57 -134 75 -201 40z"/>
<path d="M1042 2984 c-56 -280 -109 -518 -117 -531 -34 -51 -124 -51 -157 0
-13 19 -46 136 -169 606 l-33 124 -44 -95 c-31 -67 -51 -99 -68 -107 -14 -6
-76 -11 -139 -11 -103 0 -115 -2 -115 -17 0 -58 33 -307 54 -414 48 -249 117
-453 231 -684 470 -954 1439 -1580 2510 -1622 470 -18 947 85 1381 298 451
221 854 577 1135 1002 267 403 430 875 465 1345 l7 92 -169 -2 -168 -3 -58
-140 c-32 -77 -68 -148 -79 -157 -12 -10 -36 -18 -54 -18 -60 0 -76 24 -160
245 -43 113 -81 202 -86 198 -4 -4 -31 -66 -60 -137 -72 -174 -55 -166 -330
-166 l-217 0 -4 -212 c-5 -188 -8 -225 -31 -310 -53 -201 -164 -385 -337 -558
-210 -210 -434 -335 -702 -391 -134 -28 -367 -31 -508 -5 -288 52 -526 180
-745 400 -139 140 -227 264 -309 437 -103 219 -164 460 -182 719 l-7 100 -233
0 -234 0 -31 28 c-29 26 -33 39 -78 254 -25 125 -49 229 -52 232 -3 4 -52
-222 -107 -500z"/>
<path d="M2874 2851 c-41 -25 -68 -83 -60 -127 21 -112 270 -285 496 -346 120
-32 365 -32 485 0 169 46 386 178 453 276 66 99 23 216 -81 216 -51 0 -62 -7
-143 -88 -151 -150 -397 -215 -629 -167 -110 23 -245 95 -318 170 -34 34 -72
67 -84 74 -32 17 -84 13 -119 -8z"/>
</g>
</svg>
